<?xml version="1.0" encoding="UTF-8"?>
<svg width="300px" height="300px" viewBox="0 0 300 300" version="1.1" xmlns="http://www.w3.org/2000/svg" xmlns:xlink="http://www.w3.org/1999/xlink">
    <title>PI_Community</title>
    <g id="PI_Community" stroke="none" stroke-width="1" fill="none" fill-rule="evenodd">
        <circle id="Oval" stroke="#4FA2DB" stroke-width="7" fill="" cx="150" cy="150" r="146.5"></circle>
        <path d="M241.997893,119.172395 C242.024444,104.645064 236.154164,90.7371696 225.747603,80.6662183 C215.598648,70.9542113 202.226211,65.3789518 188.224711,65.0186401 C174.220493,64.6580891 160.582633,69.5389452 149.950751,78.7152706 C139.31581,69.6428682 125.708537,64.8689091 111.771948,65.3177604 C97.8340006,65.7664407 84.5587613,71.406823 74.5209376,81.1444688 C64.4474297,91.0967976 58.8426156,104.751038 59.0033649,118.953268 C59.0073476,133.99611 64.9123451,148.430115 75.4368347,159.117425 C74.4518121,161.9751 74.3071037,165.058465 75.0212995,167.997706 C75.7355293,170.936845 77.2781106,173.604758 79.4617858,175.6839 C82.6054027,178.732534 86.8083336,180.42299 91.1733731,180.396326 C91.8079419,180.431044 92.4425107,180.431044 93.0770795,180.396326 C92.287199,185.357278 94.0674378,190.382156 97.7979425,193.723073 C100.942885,196.767673 105.14449,198.458403 109.50953,198.435499 C110.144099,198.470217 110.779993,198.470217 111.413236,198.435499 C110.623356,203.396451 112.403594,208.421329 116.134099,211.762246 C119.277716,214.809546 123.480647,216.501336 127.847046,216.474671 C128.492218,216.315765 129.126787,216.11812 129.749427,215.885763 C129.721549,216.437273 129.721549,216.990115 129.749427,217.541625 C129.852976,221.880065 131.614628,226.010317 134.668083,229.075018 C137.721435,232.13965 141.831451,233.902306 146.143474,233.995973 C150.456516,234.090782 154.638376,232.508371 157.821756,229.579933 L168.801985,218.535046 L168.801985,218.536381 C170.073773,217.25977 171.125169,215.780202 171.912398,214.15521 C177.577026,215.654811 183.610731,214.079093 187.833714,209.995558 C191.540123,206.66917 193.317881,201.67899 192.554576,196.741967 L193.981677,196.741967 C198.379682,196.75265 202.609461,195.035375 205.767691,191.956044 C209.515222,188.54956 211.281085,183.456585 210.451171,178.445038 C215.54349,179.266269 220.715674,177.550344 224.322508,173.843373 C226.739966,171.522507 228.365029,168.491342 228.963506,165.183585 C229.56222,161.87723 229.102899,158.464148 227.653212,155.435342 C236.830534,145.612575 241.957519,132.651609 242,119.171713 L241.997893,119.172395 Z M84.6964521,170.329407 C82.9735268,168.677319 82,166.403556 82,164.028473 C82,161.653253 82.9735268,159.378224 84.6964521,157.726171 L95.8644953,146.670623 L95.8644953,146.67196 C97.6724884,144.957048 100.079862,144 102.583503,144 C105.088216,144 107.494345,144.957048 109.303548,146.67196 C111.026473,148.324047 112,150.59781 112,152.972893 C112,155.347976 111.026473,157.621774 109.303548,159.273827 L98.1355047,170.329375 C96.3275116,172.042952 93.9201379,173 91.4164969,173 C88.9117844,173 86.5056551,172.042952 84.6964521,170.329375 L84.6964521,170.329407 Z M102.697651,187.330732 C100.973473,185.679484 100,183.405509 100,181.031633 C100,178.657758 100.973473,176.385116 102.697651,174.733903 L113.865077,163.683974 C115.668926,161.963265 118.077791,161 120.583713,161 C123.089635,161 125.498431,161.963231 127.302349,163.683974 C129.026527,165.335222 130,167.607829 130,169.983073 C130,172.357086 129.026527,174.62959 127.302349,176.280804 L116.134923,187.330732 C114.32703,189.043439 111.91979,190 109.416287,190 C106.912785,190 104.505717,189.043439 102.697651,187.330732 L102.697651,187.330732 Z M135.135092,206.330589 L135.135092,206.329252 C133.32718,208.044243 130.919914,209 128.416386,209 C125.913133,209 123.505764,208.044243 121.697679,206.329252 C119.973483,204.677088 119,202.403221 119,200.028028 C119,197.652836 119.973483,195.378934 121.697679,193.726805 L132.865221,182.670748 L132.863871,182.670748 C134.673131,180.957092 137.079049,180 139.583614,180 C142.086867,180 144.494236,180.957092 146.302321,182.670748 C148.026517,184.322912 149,186.596779 149,188.971972 C149,191.347164 148.026517,193.621066 146.302321,195.274564 L135.135092,206.330589 Z M165.327657,213.462372 L154.209283,224.367121 L154.209283,224.365802 C152.409331,226.056006 150.012664,227 147.520158,227 C145.027928,227 142.631158,226.056006 140.831034,224.365802 C139.036484,222.642623 138.021553,220.285255 138.014842,217.822413 C137.872354,215.447933 138.760908,213.124889 140.460031,211.425505 L151.578404,200.520756 L151.578404,200.522075 C153.452275,198.862179 155.898909,197.961725 158.423418,198.001248 C160.946552,198.042118 163.362318,199.020372 165.179648,200.739603 C166.964803,202.365206 167.985068,204.64093 168,207.029856 C168.013308,209.418816 167.019897,211.707467 165.253566,213.351499 L165.327657,213.462372 Z M220.251609,168.589007 C218.481729,170.274633 216.127095,171.215695 213.679593,171.215695 C211.230523,171.215695 208.87732,170.274667 207.107578,168.589007 C206.737367,168.246574 206.29921,167.985112 205.82246,167.820521 L181.076062,143.852611 C179.601833,142.626201 177.429867,142.739043 176.091394,144.11143 C174.754319,145.483845 174.702397,147.651283 175.972868,149.084825 L201.672834,174.040143 L201.674166,174.040143 C203.393452,175.67137 204.36693,177.93303 204.36693,180.298255 C204.36693,182.663446 203.393418,184.925071 201.674166,186.555008 C200.085386,188.065442 198.022516,188.981258 195.834458,189.147173 C193.6464,189.314411 191.467547,188.72112 189.668484,187.469498 C189.411457,187.176171 189.191735,186.847017 188.897414,186.555008 L163.197448,161.59969 L163.196116,161.59969 C162.519584,160.836505 161.554084,160.38789 160.532638,160.364004 C159.509862,160.340112 158.524384,160.740958 157.811884,161.472272 C157.099419,162.20226 156.725185,163.196396 156.778471,164.213092 C156.831741,165.229789 157.308508,166.180127 158.092909,166.831795 L182.728847,190.689616 C182.915292,191.099733 183.177641,191.472712 183.499918,191.787283 C183.867469,192.153602 184.270988,192.409764 184.674507,192.701773 L184.674507,192.7031 C185.881076,194.210884 186.540289,196.079688 186.546937,198.008123 C186.534951,200.448983 185.496205,202.771872 183.683711,204.412341 C181.373158,206.59439 178.118447,207.473033 175.018073,206.753646 C175.034054,202.409528 173.269502,198.247193 170.136024,195.227547 C166.41653,191.728808 161.338449,190.041789 156.257981,190.6167 C157.111624,185.600833 155.291151,180.501379 151.447867,177.151464 C147.816332,173.684664 142.819391,172.02007 137.826882,172.61367 C138.61926,167.682748 136.833391,162.688287 133.089726,159.367594 C129.459554,155.902153 124.461249,154.237559 119.46874,154.830819 C120.261119,149.898538 118.47525,144.905436 114.732948,141.583384 C111.575401,138.57179 107.373736,136.890309 103.001711,136.890309 C98.6310496,136.890309 94.4291463,138.57196 91.2718378,141.583384 L80.2568847,152.561413 C71.7658011,143.448449 67.0341,131.480294 67.0034167,119.043579 C66.8529289,106.897718 71.6792061,95.2149799 80.3673445,86.6966355 C89.018322,78.3920141 100.423294,73.5341453 112.424884,73.0414609 C124.426475,72.5490482 136.192486,76.4566136 145.500086,84.0245868 L123.104367,105.980305 C119.705751,108.822007 117.690815,112.976425 117.564332,117.394955 C117.437818,121.813485 119.213012,126.075376 122.442631,129.105555 C125.588212,132.114498 129.777978,133.793532 134.136707,133.793532 C138.495436,133.793532 142.685066,132.114532 145.830783,129.105555 L169.806008,105.870216 L195.505974,131.484032 L220.361469,156.074423 C222.067424,157.718902 223.020958,159.989735 223,162.35496 C222.979674,164.720152 221.986182,166.973962 220.25227,168.589288 L220.251609,168.589007 Z M224.436765,150 L200.77299,126.634254 L172.477595,98.5660205 C172.305655,98.4274311 172.121711,98.3048345 171.927117,98.1982341 C171.723188,98.0276626 171.501932,97.8810768 171.266018,97.7584665 C171.05809,97.7398104 170.848817,97.7398104 170.640916,97.7584665 C170.191744,97.5852306 169.694597,97.5852306 169.24406,97.7584665 C169.012141,97.7358126 168.778885,97.7358126 168.546963,97.7584665 C168.339035,97.8610755 168.141773,97.985006 167.957825,98.1249225 C167.748566,98.2395261 167.552635,98.3741173 167.370018,98.5300299 L140.802183,124.246423 L140.803516,124.246423 C139.028153,125.961452 136.6571,126.919586 134.188427,126.919586 C131.72129,126.919586 129.348668,125.961452 127.574704,124.246423 C125.881982,122.645984 124.94764,120.403104 125.002268,118.073779 C125.107563,115.624473 126.257828,113.336324 128.162477,111.791969 L153.626831,86.9939338 C162.755632,78.116366 174.956712,73.1042911 187.690766,73.0016071 C200.423454,72.898998 212.705743,77.713476 221.975806,86.4419642 C230.495543,94.6798885 235.506933,105.885758 235.965522,117.727177 C236.424044,129.567232 232.294757,141.128914 224.437655,150 L224.436765,150 Z" id="Shape" stroke="#4FA2DB" fill="#4FA2DB" fill-rule="nonzero"></path>
    </g>
</svg>