<?xml version="1.0" encoding="utf-8"?>
<!-- Generator: Adobe Illustrator 16.0.0, SVG Export Plug-In . SVG Version: 6.00 Build 0)  -->
<!DOCTYPE svg PUBLIC "-//W3C//DTD SVG 1.1//EN" "http://www.w3.org/Graphics/SVG/1.1/DTD/svg11.dtd">
<svg version="1.1" id="Layer_1" xmlns="http://www.w3.org/2000/svg" xmlns:xlink="http://www.w3.org/1999/xlink" x="0px" y="0px"
	 width="595.281px" height="378.814px" viewBox="0 231.538 595.281 378.814" enable-background="new 0 231.538 595.281 378.814"
	 xml:space="preserve">
<g>
	<path fill="#E2F1FC" d="M519.619,413.498c0.615-5.676,0.957-11.436,0.957-17.277c0-87.201-70.492-157.891-157.451-157.891
		c-70.534,0-130.228,46.513-150.265,110.617c-12.937-13.482-31.076-21.907-51.208-21.907c-39.271,0-71.109,31.925-71.109,71.305
		c0,4.032,0.413,7.955,1.055,11.805c-47.808,5.929-84.827,46.776-84.827,96.323c0,53.623,43.347,97.092,96.821,97.092h388.097
		c53.473,0,96.82-43.469,96.82-97.092C588.509,462.588,559.472,425.521,519.619,413.498z"/>
	<path fill="#F4F9FD" d="M526.658,421.04c0.494-4.539,0.764-9.143,0.764-13.813c0-69.722-56.361-126.239-125.889-126.239
		c-56.393,0-104.119,37.188-120.141,88.442c-10.343-10.779-24.846-17.517-40.942-17.517c-31.397,0-56.853,25.526-56.853,57.012
		c0,3.224,0.332,6.362,0.842,9.437c-38.227,4.738-67.821,37.398-67.821,77.015c0,42.874,34.658,77.627,77.41,77.627h310.296
		c42.752,0,77.41-34.757,77.41-77.627C581.738,460.288,558.519,430.652,526.658,421.04z"/>
	<path fill="#327BBA" d="M491.687,610.352H103.592C46.473,610.352,0,563.752,0,506.469c0-50.048,35.676-92.752,84.046-102.006
		c-0.183-2.098-0.274-4.13-0.274-6.122c0-43.063,34.936-78.097,77.88-78.097c17.733,0,34.496,5.896,48.177,16.775
		c24.278-63.509,84.628-105.482,153.295-105.482c90.553,0,164.223,73.876,164.223,164.683c0,4.096-0.162,8.29-0.486,12.531
		c40.553,14.713,68.42,54.117,68.42,97.718C595.281,563.752,548.808,610.352,491.687,610.352z M161.652,333.828
		c-35.473,0-64.334,28.942-64.334,64.517c0,3.305,0.314,6.802,0.96,10.682l1.167,6.991l-7.015,0.869
		c-44.974,5.577-78.888,44.088-78.888,89.583c0,49.794,40.395,90.3,90.05,90.3h388.097c49.654,0,90.049-40.506,90.049-90.3
		c0-39.528-26.344-75.087-64.066-86.468l-5.393-1.624l0.609-5.611c0.609-5.61,0.916-11.178,0.916-16.546
		c0-83.318-67.594-151.1-150.68-151.1c-66.225,0-124.011,42.539-143.801,105.858l-3.419,10.935l-7.921-8.259
		C195.712,340.87,179.257,333.828,161.652,333.828z"/>
</g>
<path fill="#327BBA" d="M297.408,432.145l20.926-20.987v96.453c0,3.243,2.586,5.841,5.824,5.841c3.236,0,5.824-2.598,5.824-5.841
	v-96.449l20.926,20.986c1.123,1.167,2.631,1.732,4.1,1.732c1.467,0,2.977-0.605,4.1-1.732c2.285-2.293,2.285-5.969,0-8.266
	l-30.854-30.938c-1.08-1.127-2.588-1.732-4.1-1.732s-3.02,0.649-4.1,1.732l-30.854,30.938c-2.285,2.293-2.285,5.97,0,8.266
	C291.488,434.445,295.162,434.438,297.408,432.145z"/>
</svg>
